<svg xmlns="http://www.w3.org/2000/svg" width="20" height="20" viewBox="0 0 20 20" aria-hidden="true">
					<path d="M7.4,0C6.2,0,5.2,1,5.2,2.2s1,2.2,2.2,2.2h2.2V2.2C9.6,1,8.6,0,7.4,0zM12.6,0c-1.2,0-2.2,1-2.2,2.2v5.2c0,1.2,1,2.2,2.2,2.2s2.2-1,2.2-2.2V2.2C14.8,1,13.8,0,12.6,0z M2.2,5.2C1,5.2,0,6.2,0,7.4s1,2.2,2.2,2.2h5.2c1.2,0,2.2-1,2.2-2.2s-1-2.2-2.2-2.2H2.2zM17.8,5.2c-1.2,0-2.2,1-2.2,2.2v2.2h2.2c1.2,0,2.2-1,2.2-2.2S19,5.2,17.8,5.2z M2.2,10.4c-1.2,0-2.2,1-2.2,2.2s1,2.2,2.2,2.2s2.2-1,2.2-2.2v-2.2H2.2zM7.4,10.4c-1.2,0-2.2,1-2.2,2.2v5.2c0,1.2,1,2.2,2.2,2.2s2.2-1,2.2-2.2v-5.2C9.6,11.4,8.6,10.4,7.4,10.4z M12.6,10.4c-1.2,0-2.2,1-2.2,2.2s1,2.2,2.2,2.2h5.2c1.2,0,2.2-1,2.2-2.2s-1-2.2-2.2-2.2H12.6zM10.4,15.7v2.2c0,1.2,1,2.2,2.2,2.2s2.2-1,2.2-2.2c0-1.2-1-2.2-2.2-2.2H10.4z"/>
				</svg>