<svg xmlns="http://www.w3.org/2000/svg" width="20" height="20" viewBox="0 0 20 20" aria-hidden="true">
					<path d="M10,0C4.5,0,0,4.5,0,10c0,5.5,4.5,10,10,10c5.5,0,10-4.5,10-10C20,4.5,15.5,0,10,0 M16.1,5.2c1,1.2,1.6,2.8,1.7,4.4c-1.1-0.2-2.2-0.4-3.2-0.4v0h0c-0.8,0-1.6,0.1-2.3,0.2c-0.2-0.4-0.3-0.8-0.5-1.2C13.4,7.6,14.9,6.6,16.1,5.2 M10,2.2c1.8,0,3.5,0.6,4.9,1.7c-1,1.2-2.4,2.1-3.8,2.7c-1-2-2-3.4-2.7-4.3C8.9,2.3,9.4,2.2,10,2.2 M6.6,3c0.5,0.6,1.6,2,2.8,4.2C7,8,4.6,8.1,3.2,8.1c0,0-0.1,0-0.1,0h0c-0.2,0-0.4,0-0.6,0C3,5.9,4.5,4,6.6,3 M2.2,10c0,0,0-0.1,0-0.1c0.2,0,0.5,0,0.9,0h0c1.6,0,4.3-0.1,7.1-1c0.2,0.3,0.3,0.7,0.4,1c-1.9,0.6-3.3,1.6-4.4,2.6c-1,0.9-1.7,1.9-2.2,2.5C2.9,13.7,2.2,11.9,2.2,10 M10,17.8c-1.7,0-3.3-0.6-4.6-1.5c0.3-0.5,0.9-1.3,1.8-2.2c1-0.9,2.3-1.9,4.1-2.5c0.6,1.7,1.1,3.6,1.5,5.7C11.9,17.6,11,17.8,10,17.8M14.4,16.4c-0.4-1.9-0.9-3.7-1.4-5.2c0.5-0.1,1-0.1,1.6-0.1h0h0h0c0.9,0,2,0.1,3.1,0.4C17.3,13.5,16.1,15.3,14.4,16.4"/>
				</svg>